<svg width="199" height="32" viewBox="0 0 199 32" fill="none" xmlns="http://www.w3.org/2000/svg">
<path d="M12.7266 29.2275C15.1266 28.5531 17.7455 28.7025 20.291 29.6768C20.5089 29.7516 20.6542 29.8265 20.8721 29.9014C21.0903 29.9763 21.3814 30.052 21.5996 30.127L23.709 30.6514L21.6719 31.4004C21.2357 31.6251 20.6544 31.775 20.1455 31.9248L19.9268 32L19.5635 31.8506C19.3453 31.7756 19.1996 31.6999 18.9814 31.625C16.9451 30.9506 15.054 30.9507 13.3086 31.4004C13.1631 31.4753 13.0175 31.5508 12.8721 31.5508C12.654 31.5509 12.4359 31.7005 12.2178 31.7754L12 31.8506L11.7812 31.7754C11.345 31.6255 10.9089 31.475 10.4727 31.3252L9.01758 30.8008L9.4541 30.5762L11.1992 29.752C11.7082 29.5272 12.2176 29.3774 12.7266 29.2275Z" fill="#F3F3F3"/>
<path d="M29.3096 24.6562C29.0187 25.1808 28.6546 25.6305 28.291 26.0801C28.2184 26.1548 28.1456 26.1548 28.1455 26.2295L27.9277 26.4541L27.7822 26.5293C23.4913 28.4028 19.9271 27.5788 18.1816 26.9043C16.0726 26.08 13.9636 26.0047 12 26.5293C10.4728 26.904 9.01805 27.6533 7.70898 28.7773C7.56372 28.8522 7.41853 29.0021 7.3457 29.0771L6.90918 29.4521L6.47266 29.1523C6.25449 29.0025 6.10932 28.9272 5.96387 28.7773C5.89124 28.7025 5.89083 28.6281 5.81836 28.6279L5.16309 28.0283L5.4541 27.7285L6.47266 26.8291C7.9272 25.705 9.52747 24.8061 11.2002 24.3564C13.6002 23.682 16.2182 23.8314 18.7637 24.8057C21.891 26.0047 25.0183 25.6301 28.4365 23.6816L30.7637 22.333L29.3096 24.6562Z" fill="#F3F3F3"/>
<path d="M31.9277 16.1123C31.9277 16.5619 31.8545 17.0865 31.8545 17.5361V17.7617L31.6367 17.9863C31.4914 18.1361 31.3456 18.2106 31.2002 18.3604C28.7275 20.5337 25.3816 22.4827 22.0361 22.8574C20.1453 23.0822 18.2546 22.857 16.4365 22.1826C14.3275 21.3583 12.2185 21.284 10.2549 21.8086C8.07305 22.4081 6.18199 23.6072 4.43652 25.5557C4.36374 25.6307 4.21818 25.7806 4.14551 25.8555L3.63672 26.5293L3.2002 25.8555C3.05474 25.5557 2.90861 25.33 2.69043 25.0303L2.40039 24.5811L2.69043 24.2061L3.63672 23.1572C5.45476 21.3588 7.49079 20.1598 9.74512 19.4854C12.1451 18.8109 14.7641 18.9603 17.3096 19.9346C22.6911 22.0326 27.4909 18.8855 30.4727 15.9629C30.6181 15.813 30.7637 15.6626 30.9092 15.5127L32 14.3887L31.9277 16.1123Z" fill="#F3F3F3"/>
<path d="M30.9092 10.1172C31.0546 10.4917 31.1997 10.8663 31.2725 11.166L31.418 11.541L31.127 11.8408L31.0547 11.916L29.9639 13.04C23.2729 19.2602 17.3087 17.9862 14.9814 17.0869C12.8724 16.2627 10.7634 16.1873 8.7998 16.7119C5.81811 17.5363 3.70889 19.5595 2.18164 20.9834C2.10891 21.1333 1.96335 21.2085 1.89062 21.3584L1.16309 22.333L0.727539 21.1338C0.654829 20.7592 0.509269 20.3844 0.436523 20.0098L0.363281 19.71L0.582031 19.4854C0.654759 19.4104 0.727539 19.4099 0.727539 19.335L1.81836 18.1357V18.2109C3.70914 16.4125 5.7452 15.1384 8.07227 14.4639C10.4723 13.7894 13.0913 13.9388 15.6367 14.9131C21.3094 17.0113 26.2551 13.5647 29.4551 10.1924C29.6005 10.0426 29.7457 9.96723 29.8184 9.81738L30.5459 9.06836L30.9092 10.1172Z" fill="#F3F3F3"/>
<path d="M28.6543 5.91992C28.8725 6.21969 29.0181 6.52029 29.2363 6.74512L29.5273 7.19434L29.1641 7.49414L28.2188 8.46875C25.746 10.6421 20.0728 14.6888 13.5273 12.2158C11.4183 11.3915 9.3093 11.3163 7.3457 11.8408C5.30933 12.4404 3.41785 13.5647 1.74512 15.3633C1.52712 15.5132 1.38171 15.7379 1.23633 15.8877L0 17.2363L0.0722656 15.3633C0.14499 14.9136 0.145055 14.3888 0.217773 13.8643V13.6396L0.363281 13.4893C0.508712 13.3394 0.582134 13.2651 0.727539 13.1152L2.25488 11.8408C3.70936 10.8666 5.1642 10.1176 6.69141 9.66797C9.09134 8.99359 11.7095 9.14298 14.2549 10.1172C19.6364 12.2153 24.3634 9.14304 27.418 6.14551C27.4906 6.07065 27.6362 5.92073 27.709 5.8457L28.2188 5.32129L28.6543 5.91992Z" fill="#F3F3F3"/>
<path d="M25.1641 2.47363C25.4548 2.62346 25.7458 2.84761 25.9639 3.07227L26.6182 3.59766L25.1641 4.79688C22.3278 6.97005 19.2731 8.09365 16.2188 8.09375C14.6916 8.09375 13.3094 7.86922 11.9277 7.34473C9.81863 6.52037 7.70876 6.44513 5.74512 6.96973C5.30884 7.11956 4.79951 7.26939 4.36328 7.49414C4.14518 7.56911 3.85456 7.7187 3.49121 7.71875L1.23633 8.91797L2.61816 6.74512C2.90907 6.29547 3.27257 5.92035 3.56348 5.4707C3.63611 5.39586 3.70879 5.39593 3.70898 5.32129L3.92773 5.0957L4.07324 5.02148C4.36381 4.94662 4.58184 4.87174 4.7998 4.79688C7.41786 3.97256 10.0362 4.19679 12.6543 5.1709C16.2906 6.59475 20.1456 5.77089 24 2.77344C24.1455 2.6985 24.2188 2.54857 24.3643 2.47363L24.7275 2.17383L25.1641 2.47363Z" fill="#F3F3F3"/>
<path d="M19.6367 0C20.1457 0.074954 20.5823 0.225141 21.0186 0.375L22.5459 0.899414L20.291 2.02344C18.4728 2.77285 16.6546 3.22266 14.7637 3.22266C12.9456 3.22265 11.4914 2.84734 10.5459 2.47266L10.3271 2.39844C10.109 2.3235 9.89056 2.24831 9.74512 2.32324L8 1.79883L9.67285 1.04883C10.109 0.824115 10.5453 0.674237 10.9814 0.524414L11.2002 0.449219L11.418 0.524414C11.6362 0.599356 11.8551 0.674082 12.0732 0.749023C14.1822 1.34846 16.3642 1.19932 18.5459 0.375C18.764 0.300034 18.9821 0.150113 19.2002 0.0751953L19.418 0H19.6367Z" fill="#F3F3F3"/>
<path d="M45.776 25V7.624H51.584C54.248 7.624 56.528 8.368 58.256 9.952C59.984 11.512 60.92 13.768 60.92 16.312C60.92 18.832 59.984 21.088 58.256 22.672C56.528 24.232 54.272 25 51.584 25H45.776ZM51.344 22.288C53.12 22.288 54.656 21.88 55.904 20.872C57.128 19.84 57.872 18.184 57.872 16.312C57.872 14.416 57.128 12.76 55.904 11.752C54.656 10.72 53.12 10.312 51.344 10.312H48.824V22.288H51.344Z" fill="#F3F3F3"/>
<path d="M64.9102 11.08C63.9022 11.08 63.0862 10.288 63.0862 9.28C63.0862 8.296 63.9022 7.48 64.9102 7.48C65.8942 7.48 66.7102 8.296 66.7102 9.28C66.7102 10.288 65.8942 11.08 64.9102 11.08ZM63.4462 25V13.144H66.3502V25H63.4462Z" fill="#F3F3F3"/>
<path d="M70.3989 26.896C71.4549 27.592 72.8709 28.024 74.2389 28.024C76.4709 28.024 77.7669 26.776 77.7669 24.736V23.992L77.7189 23.968C76.8789 24.568 75.7989 24.904 74.6229 24.904C71.5509 24.904 69.0549 22.6 69.0549 19.072C69.0549 15.568 71.5749 12.88 75.2709 12.88C76.5669 12.88 77.6709 13.216 78.5829 13.72L80.6709 13.192V24.808C80.6709 28.432 78.2229 30.52 74.4549 30.52C72.8949 30.52 71.4309 30.136 70.3989 29.584V26.896ZM71.9829 18.976C71.9829 20.992 73.2549 22.48 75.3189 22.48C76.2549 22.48 77.1429 22.144 77.7669 21.664V15.976C77.1429 15.64 76.3029 15.376 75.4629 15.376C73.2309 15.376 71.9829 16.984 71.9829 18.976Z" fill="#F3F3F3"/>
<path d="M85.5352 11.08C84.5272 11.08 83.7112 10.288 83.7112 9.28C83.7112 8.296 84.5272 7.48 85.5352 7.48C86.5192 7.48 87.3352 8.296 87.3352 9.28C87.3352 10.288 86.5192 11.08 85.5352 11.08ZM84.0712 25V13.144H86.9752V25H84.0712Z" fill="#F3F3F3"/>
<path d="M89.1999 15.64V13.144H91.2879V10.096L94.1919 9.4V13.144H97.5519V15.64H94.1919V20.656C94.1919 22.048 94.7679 22.768 95.9439 22.768C96.5199 22.768 97.0959 22.6 97.5519 22.408V24.808C96.9999 25.072 96.1119 25.264 95.1999 25.264C92.5599 25.264 91.2879 23.704 91.2879 20.944V15.64H89.1999Z" fill="#F3F3F3"/>
<path d="M110.953 24.928C110.521 25.072 109.969 25.216 109.345 25.216C108.193 25.216 107.305 24.808 106.825 24.04H106.801C106.009 24.688 104.761 25.24 103.249 25.24C100.897 25.24 99.1212 23.968 99.1212 21.688C99.1212 19.168 101.065 18.016 104.017 18.016C104.737 18.016 105.577 18.088 106.345 18.208V17.488C106.345 16.024 105.361 15.376 103.489 15.376C102.097 15.376 100.897 15.784 100.105 16.24V13.792C100.969 13.288 102.361 12.88 104.065 12.88C107.281 12.88 109.201 14.296 109.201 17.128V21.76C109.201 22.336 109.465 22.816 110.233 22.816C110.497 22.816 110.737 22.744 110.953 22.648V24.928ZM103.945 23.008C104.857 23.008 105.793 22.696 106.345 22.216V20.104C105.793 20.008 105.025 19.936 104.449 19.936C103.105 19.936 101.977 20.32 101.977 21.496C101.977 22.552 102.841 23.008 103.945 23.008Z" fill="#F3F3F3"/>
<path d="M112.829 25V6.664H115.733V25H112.829Z" fill="#F3F3F3"/>
<path d="M124.971 25V7.624H130.851C132.819 7.624 134.283 7.912 135.531 8.8C136.779 9.688 137.619 11.2 137.619 13.096C137.619 15.016 136.779 16.504 135.531 17.392C134.283 18.304 132.819 18.616 130.851 18.616H128.019V25H124.971ZM128.019 15.976H130.755C131.955 15.976 132.795 15.832 133.467 15.376C134.139 14.92 134.571 14.104 134.571 13.144C134.571 12.16 134.139 11.32 133.467 10.864C132.795 10.408 131.955 10.288 130.755 10.288H128.019V15.976Z" fill="#F3F3F3"/>
<path d="M139.852 25V13.144H142.732V14.8L142.78 14.824C143.596 13.672 144.82 13.024 146.236 13.024C146.476 13.024 146.74 13.048 147.004 13.12V15.904C146.716 15.832 146.404 15.784 146.092 15.784C144.652 15.784 143.572 16.384 142.756 17.536V25H139.852Z" fill="#F3F3F3"/>
<path d="M154.492 25.264C150.82 25.264 148.084 22.552 148.084 19.072C148.084 15.568 150.82 12.88 154.492 12.88C158.164 12.88 160.9 15.568 160.9 19.072C160.9 22.552 158.164 25.264 154.492 25.264ZM154.492 22.696C156.484 22.696 157.996 21.112 157.996 19.072C157.996 17.032 156.484 15.424 154.492 15.424C152.476 15.424 150.988 17.032 150.988 19.072C150.988 21.112 152.476 22.696 154.492 22.696Z" fill="#F3F3F3"/>
<path d="M167.748 25.264C166.236 25.264 164.364 24.952 163.044 24.208V21.52C164.532 22.48 166.452 22.888 167.796 22.888C169.116 22.888 169.956 22.504 169.956 21.664C169.956 21.064 169.596 20.752 168.588 20.512C167.58 20.272 165.732 20.008 164.604 19.48C163.452 18.952 162.9 18.04 162.9 16.672C162.9 14.176 164.94 12.88 167.796 12.88C169.26 12.88 170.988 13.216 172.164 13.816V16.36C170.724 15.592 169.044 15.232 167.844 15.232C166.62 15.232 165.804 15.592 165.804 16.408C165.804 17.032 166.26 17.32 167.292 17.56C168.324 17.776 170.052 18.016 171.156 18.52C172.284 19.048 172.86 19.936 172.86 21.4C172.86 24.04 170.556 25.264 167.748 25.264Z" fill="#F3F3F3"/>
<path d="M174.278 15.64V13.144H176.366V10.096L179.27 9.4V13.144H182.63V15.64H179.27V20.656C179.27 22.048 179.846 22.768 181.022 22.768C181.598 22.768 182.174 22.6 182.63 22.408V24.808C182.078 25.072 181.19 25.264 180.278 25.264C177.638 25.264 176.366 23.704 176.366 20.944V15.64H174.278Z" fill="#F3F3F3"/>
<path d="M186.527 11.08C185.519 11.08 184.703 10.288 184.703 9.28C184.703 8.296 185.519 7.48 186.527 7.48C187.511 7.48 188.327 8.296 188.327 9.28C188.327 10.288 187.511 11.08 186.527 11.08ZM185.063 25V13.144H187.967V25H185.063Z" fill="#F3F3F3"/>
<path d="M191.368 25V13.144H194.248V14.8L194.296 14.824C195.112 13.672 196.336 13.024 197.752 13.024C197.992 13.024 198.256 13.048 198.52 13.12V15.904C198.232 15.832 197.92 15.784 197.608 15.784C196.168 15.784 195.088 16.384 194.272 17.536V25H191.368Z" fill="#F3F3F3"/>
</svg>
