<svg width="64" height="22" viewBox="0 0 64 22" fill="none" xmlns="http://www.w3.org/2000/svg">
<path d="M7.79904 0.282488C7.79583 0.267408 7.80111 0.255881 7.81078 0.248333C7.81571 0.244488 7.82067 0.242742 7.82465 0.242309C7.8279 0.241955 7.83276 0.242151 7.83998 0.246001C8.71238 0.711277 9.42036 1.26412 9.97143 1.87466C10.8163 2.81072 11.524 3.93607 11.6914 5.15748C11.8006 5.95437 11.7465 6.87141 11.6064 7.79033C11.1218 10.9687 8.63111 13.7345 5.46365 14.1693C5.27187 14.1956 4.91022 14.1901 4.50382 14.1221C4.09824 14.0542 3.66424 13.9267 3.32175 13.7197C3.31944 13.7183 3.31827 13.7173 3.31775 13.7167C3.31762 13.7161 3.31744 13.7144 3.31791 13.7116C3.3196 13.7014 3.32831 13.6862 3.34747 13.6781C3.89103 13.4465 4.18445 13.1025 4.319 12.6948C4.45018 12.2973 4.42484 11.8546 4.369 11.433C4.33209 11.1543 4.25445 10.8845 4.17988 10.6267L4.17735 10.6179C4.10266 10.3597 4.03141 10.1135 3.99565 9.86289C3.9359 9.44413 3.99044 8.9639 4.22726 8.45011C4.4869 7.88683 5.02112 7.50921 5.57715 7.12497C6.97918 6.15612 7.6873 5.12208 7.96409 3.97893C8.23897 2.84368 8.08328 1.61956 7.79904 0.282488Z" fill="#FF831A"/>
<path d="M3.31739 13.7163C3.31739 13.7163 3.31749 13.7163 3.31762 13.7166C3.31745 13.7164 3.31739 13.7163 3.31739 13.7163Z" fill="#FF831A"/>
<path d="M12.0422 5.83361C12.0783 5.56229 12.1143 5.26947 12.1533 4.95068C12.1655 4.85084 12.2952 4.81976 12.3511 4.9034C14.6016 8.27292 14.2822 12.7821 11.6352 15.8501C8.53669 19.5342 2.61816 18.5208 0.921794 14.0157L0.816507 13.7361C0.786749 13.657 0.878759 13.5856 0.951197 13.629C1.91004 14.2035 2.76922 14.3337 3.59068 14.1802C3.8738 14.2924 4.17479 14.3674 4.45493 14.4143C4.88009 14.4854 5.2734 14.4944 5.50394 14.4628C8.81874 14.0078 11.3976 11.1249 11.8993 7.83499C12.0022 7.15971 12.061 6.47651 12.0422 5.83361Z" fill="#FF831A"/>
<path d="M7.15947 5.13987C7.00186 4.55164 6.71399 3.97132 6.25875 3.41887C6.20684 3.35588 6.10525 3.37127 6.07022 3.44499C5.57275 4.49183 4.34454 5.24851 3.12579 5.99935C1.29425 7.12773 -0.515905 8.24293 0.20761 10.31C0.228427 10.3694 0.297454 10.3997 0.354588 10.3732L0.717874 10.2042L1.16923 10.0231C2.27212 9.58049 3.45859 10.0733 3.98411 11.027C3.9568 10.9223 3.92641 10.8167 3.89527 10.709L3.89022 10.6915C3.81732 10.4396 3.74107 10.1761 3.70235 9.90475C3.63425 9.42751 3.69835 8.88982 3.95819 8.32609C4.25749 7.67676 4.86606 7.25622 5.40852 6.88136L5.40872 6.88122C6.22316 6.31842 6.78508 5.74092 7.15947 5.13987Z" fill="#FF831A"/>
<path d="M62.5129 15.5413C62.4501 15.5413 62.3992 15.4904 62.3992 15.4276V6.25431C62.3992 6.19152 62.4501 6.14063 62.5129 6.14063H63.7744C63.8372 6.14063 63.8881 6.19152 63.8881 6.25431V15.4276C63.8881 15.4904 63.8372 15.5413 63.7744 15.5413H62.5129Z" fill="white"/>
<path d="M52.0299 15.5495C51.9839 15.5495 51.9424 15.5217 51.9248 15.4792L49.5086 9.35743C49.4777 9.28259 49.5327 9.20035 49.6137 9.20035H50.9537C51.0003 9.20035 51.0423 9.22888 51.0594 9.27229L51.9538 11.8089C52.2107 12.4693 52.4432 13.1054 52.6756 13.7414C52.6781 13.7484 52.6847 13.753 52.6922 13.753C52.6995 13.753 52.7061 13.7485 52.7087 13.7416C52.9534 13.0931 53.1982 12.4325 53.4673 11.772L54.3615 9.27172C54.3788 9.2286 54.4206 9.20035 54.467 9.20035H55.7216C55.8025 9.20035 55.8575 9.28243 55.8268 9.35725L53.4224 15.479C53.4049 15.5216 53.3634 15.5495 53.3173 15.5495H52.0299Z" fill="white"/>
<path d="M46.1864 15.5495C44.3038 15.5495 42.9011 14.1591 42.9011 12.3749C42.9011 10.5785 44.3038 9.20035 46.1864 9.20035C48.069 9.20035 49.4717 10.5785 49.4717 12.3749C49.4717 14.1591 48.069 15.5495 46.1864 15.5495ZM46.1864 14.2329C47.2077 14.2329 47.9829 13.4208 47.9829 12.3749C47.9829 11.329 47.2077 10.5046 46.1864 10.5046C45.1528 10.5046 44.39 11.329 44.39 12.3749C44.39 13.4208 45.1528 14.2329 46.1864 14.2329Z" fill="white"/>
<path fill-rule="evenodd" clip-rule="evenodd" d="M36.3983 18.1348C36.3355 18.1348 36.2846 18.0839 36.2846 18.0211V9.32774C36.2846 9.26496 36.3355 9.21406 36.3983 9.21406H39.4346C41.0095 9.21406 42.3138 10.4445 42.3138 12.3148C42.3138 14.2097 40.9603 15.5632 39.1639 15.5632C38.6399 15.5632 38.1883 15.4425 37.8091 15.2489C37.8022 15.2454 37.7939 15.2453 37.787 15.2488C37.7787 15.253 37.7735 15.2614 37.7735 15.2707V18.0211C37.7735 18.0839 37.7226 18.1348 37.6598 18.1348H36.3983ZM39.0039 14.3081C38.5624 14.3081 38.1428 14.1765 37.828 13.996C37.7938 13.9764 37.7735 13.9395 37.7735 13.9001V10.6074C37.7735 10.5446 37.8244 10.4937 37.8872 10.4937C38.2726 10.4937 38.5953 10.4937 39.0777 10.4937C40.1605 10.4937 40.8127 11.3304 40.8127 12.3886C40.8127 13.4837 40.1482 14.3081 39.0039 14.3081Z" fill="white"/>
<path d="M23.2268 15.5413C23.164 15.5413 23.1131 15.4904 23.1131 15.4276V6.25431C23.1131 6.19152 23.164 6.14063 23.2268 6.14063H24.4883C24.551 6.14063 24.6019 6.19152 24.6019 6.25431V10.0402C24.6019 10.0483 24.6065 10.0558 24.6138 10.0594C24.6215 10.0633 24.6308 10.0622 24.6374 10.0566C25.1288 9.64275 25.8136 9.32749 26.6076 9.32749C27.272 9.32749 27.8011 9.53667 28.1949 9.95502C28.5763 10.3734 28.724 10.9148 28.724 11.7269V15.4276C28.724 15.4904 28.6731 15.5413 28.6103 15.5413H27.3488C27.286 15.5413 27.2351 15.4904 27.2351 15.4276V11.9114C27.2351 11.4808 27.1736 11.1609 26.9644 10.9517C26.7552 10.7425 26.4599 10.6441 26.1277 10.6441C25.5781 10.6441 25.0169 10.9109 24.6356 11.2756C24.6138 11.2964 24.6019 11.3255 24.6019 11.3556V15.4276C24.6019 15.4904 24.551 15.5413 24.4883 15.5413H23.2268Z" fill="white"/>
<path d="M19.5299 15.5632C18.7767 15.5632 17.8493 15.4122 17.1765 15.0537C17.1403 15.0344 17.1183 14.9964 17.1183 14.9554V13.8523C17.1183 13.7623 17.2184 13.7072 17.2968 13.7516C18.0298 14.1666 18.9182 14.345 19.5546 14.345C20.2313 14.345 20.662 14.1482 20.662 13.7175C20.662 13.4099 20.4774 13.2499 19.9606 13.1269C19.4438 13.0038 18.4964 12.8685 17.9181 12.5978C17.3274 12.3271 17.0444 11.8595 17.0444 11.1582C17.0444 9.8785 18.0903 9.21406 19.5546 9.21406C20.2796 9.21406 21.1311 9.37482 21.7316 9.66307C21.7701 9.68156 21.794 9.72083 21.794 9.76356V10.8087C21.794 10.8946 21.7023 10.9498 21.6249 10.9126C20.9271 10.5777 20.148 10.4199 19.5792 10.4199C18.9516 10.4199 18.5333 10.6045 18.5333 11.0228C18.5333 11.3427 18.7671 11.4904 19.2962 11.6134C19.8253 11.7242 20.7112 11.8472 21.2772 12.1056C21.8555 12.3763 22.1508 12.8316 22.1508 13.5822C22.1508 14.9356 20.9696 15.5632 19.5299 15.5632Z" fill="white"/>
<path fill-rule="evenodd" clip-rule="evenodd" d="M34.6795 15.5509L31.7414 15.5509C30.5356 15.5509 29.625 14.8987 29.625 13.7298C29.625 12.4378 30.6217 11.8472 32.1351 11.8472C32.5043 11.8472 32.9349 11.8841 33.3287 11.9457V11.5765C33.3287 10.8259 32.8242 10.4937 31.8644 10.4937C31.2461 10.4937 30.7017 10.6507 30.3032 10.8447C30.2246 10.883 30.1295 10.8275 30.1295 10.74V9.74693C30.1295 9.70649 30.1508 9.66898 30.1863 9.64961C30.6322 9.40617 31.3225 9.21406 32.1598 9.21406C33.8086 9.21406 34.7929 9.94002 34.7929 11.392V12.1923L35.4251 12.2988C35.4798 12.308 35.5199 12.3554 35.5199 12.4109V13.1627C35.5199 13.2333 35.4563 13.2868 35.3868 13.2748L34.7929 13.1717V13.7667V15.4372C34.7929 15.5 34.7423 15.5509 34.6795 15.5509ZM33.2151 14.4066H32.0982C31.5322 14.4066 31.0893 14.1728 31.0893 13.6314C31.0893 13.0285 31.6676 12.8316 32.3566 12.8316C32.6519 12.8316 33.0457 12.8685 33.3287 12.9177V14.2929C33.3287 14.3557 33.2779 14.4066 33.2151 14.4066Z" fill="white"/>
<path fill-rule="evenodd" clip-rule="evenodd" d="M61.0163 15.5509H58.0782C56.8723 15.5509 55.9618 14.8987 55.9618 13.7298C55.9618 12.4378 56.9585 11.8472 58.4719 11.8472C58.8411 11.8472 59.2717 11.8841 59.6655 11.9457V11.5765C59.6655 10.8259 59.161 10.4937 58.2012 10.4937C57.5829 10.4937 57.0385 10.6507 56.64 10.8447C56.5613 10.883 56.4663 10.8275 56.4663 10.74V9.74693C56.4663 9.70649 56.4876 9.66898 56.523 9.64961C56.969 9.40617 57.6593 9.21406 58.4965 9.21406C60.1453 9.21406 61.1297 9.94002 61.1297 11.392V12.1923L61.7619 12.2988C61.8166 12.308 61.8567 12.3554 61.8567 12.4109V13.1627C61.8567 13.2333 61.7931 13.2868 61.7236 13.2748L61.1297 13.1717V13.7667V15.4372C61.1297 15.5 61.0791 15.5509 61.0163 15.5509ZM59.5518 14.4066H58.435C57.869 14.4066 57.426 14.1728 57.426 13.6314C57.426 13.0285 58.0044 12.8316 58.6934 12.8316C58.9887 12.8316 59.3825 12.8685 59.6655 12.9177V14.2929C59.6655 14.3557 59.6146 14.4066 59.5518 14.4066Z" fill="white"/>
</svg>
