<svg width="17" height="16" viewBox="0 0 17 16" fill="none" xmlns="http://www.w3.org/2000/svg">
<path d="M10.6169 7.15846C10.8885 6.90979 10.907 6.48808 10.6583 6.21656C10.4096 5.94504 9.98792 5.92652 9.7164 6.1752L7.25501 8.42948L6.61694 7.84509C6.34541 7.59641 5.92371 7.61493 5.67503 7.88645C5.42636 8.15797 5.44488 8.57968 5.7164 8.82835L6.80475 9.82513C7.05956 10.0585 7.45046 10.0585 7.70528 9.82513L10.6169 7.15846Z" fill="#5B5AFF"/>
<path fill-rule="evenodd" clip-rule="evenodd" d="M8.16667 1.3335C4.48477 1.3335 1.5 4.31826 1.5 8.00016C1.5 11.6821 4.48477 14.6668 8.16667 14.6668C11.8486 14.6668 14.8333 11.6821 14.8333 8.00016C14.8333 4.31826 11.8486 1.3335 8.16667 1.3335ZM2.83333 8.00016C2.83333 5.05464 5.22115 2.66683 8.16667 2.66683C11.1122 2.66683 13.5 5.05464 13.5 8.00016C13.5 10.9457 11.1122 13.3335 8.16667 13.3335C5.22115 13.3335 2.83333 10.9457 2.83333 8.00016Z" fill="#5B5AFF"/>
</svg>
